<svg width="16" height="16" viewBox="0 0 16 16" fill="none" xmlns="http://www.w3.org/2000/svg">
                            <g clip-path="url(#clip0_300_304)">
                            <path fill-rule="evenodd" clip-rule="evenodd" d="M5.39291 8.07049C5.27106 7.95465 5.2026 7.79755 5.2026 7.63375C5.2026 7.46995 5.27106 7.31286 5.39291 7.19702L9.06996 3.7025C9.12992 3.6435 9.20165 3.59644 9.28095 3.56407C9.36025 3.53169 9.44555 3.51465 9.53185 3.51394C9.61816 3.51323 9.70375 3.52886 9.78363 3.55992C9.86352 3.59098 9.93609 3.63685 9.99712 3.69485C10.0581 3.75285 10.1064 3.82182 10.1391 3.89773C10.1718 3.97365 10.1882 4.05499 10.1875 4.13702C10.1867 4.21904 10.1688 4.3001 10.1347 4.37546C10.1007 4.45083 10.0511 4.51899 9.98906 4.57598L6.77156 7.63375L9.98906 10.6915C10.1075 10.808 10.173 10.9641 10.1715 11.126C10.17 11.288 10.1017 11.4429 9.98115 11.5575C9.86063 11.672 9.6976 11.737 9.52717 11.7384C9.35675 11.7398 9.19255 11.6775 9.06996 11.565L5.39291 8.07049Z" fill="#9397AD"/>
                            </g>
                            <defs>
                            <clipPath id="clip0_300_304">
                            <rect width="14.8256" height="15.6" fill="white" transform="matrix(0 1 -1 0 15.6016 0.220947)"/>
                            </clipPath>
                            </defs>
</svg>