<svg width="13" height="14" viewBox="0 0 13 14" fill="none" xmlns="http://www.w3.org/2000/svg">
                        <path d="M12.7144 9.65107C12.7144 10.4216 12.057 11.0464 11.2461 11.0464H1.70261C0.891777 11.0464 0.234375 10.4216 0.234375 9.65107V2.78351C0.234375 2.01293 2.36001 0.581299 3.17085 0.581299H10.7414C11.8771 0.581299 12.7144 1.38781 12.7144 2.4563V9.65107Z" fill="#F4900C"/>
                        <path d="M11.9805 11.0464C11.9805 11.817 11.3231 12.4417 10.5123 12.4417H2.43699C1.62615 12.4417 0.968751 11.817 0.968751 11.0464V2.67428C0.968751 1.23742 0.961042 1.27893 2.80404 1.27893H10.5123C11.3231 1.27893 11.9805 1.9037 11.9805 2.67428V11.0464Z" fill="#CCD6DD"/>
                        <path d="M11.2461 11.3952C11.2461 11.9732 10.7532 12.4417 10.145 12.4417H1.33555C0.727335 12.4417 0.234375 11.9732 0.234375 11.3952V3.02307C0.234375 2.44505 0.727335 1.97656 1.33555 1.97656H10.145C10.7532 1.97656 11.2461 2.44505 11.2461 3.02307V11.3952Z" fill="#E1E8ED"/>
                        <path d="M11.2463 11.7443C11.2463 12.5149 10.5889 13.1397 9.77803 13.1397H2.0698C1.25896 13.1397 0.601562 12.5149 0.601562 11.7443V4.06991C0.601562 3.29933 1.25896 2.67456 2.0698 2.67456H9.77803C10.5889 2.67456 11.2463 3.29933 11.2463 4.06991V11.7443Z" fill="#F4900C"/>
                        <path d="M10.5121 11.7442C10.5121 12.5147 9.85475 13.1395 9.04391 13.1395H2.0698C1.25896 13.1395 0.601562 12.5147 0.601562 11.7442V4.76742C0.601562 3.99684 1.25896 3.37207 2.0698 3.37207H9.16688C9.97771 3.37207 10.5121 3.87998 10.5121 4.65056V11.7442Z" fill="#FFAC33"/>
                        <path d="M2.06967 2.67432C1.45007 2.67432 1.43429 2.00386 1.70261 1.71502C2.008 1.38676 2.48261 1.27897 3.33162 1.27897H3.90496V0.581299H2.90693C1.45007 0.581299 0.234375 1.45339 0.234375 2.4563V11.7441C0.234375 12.5147 0.891777 13.1394 1.70261 13.1394H2.43673V2.67432H2.06967Z" fill="#F4900C"/>
</svg>