<svg width="20" height="20" viewBox="0 0 20 20" fill="none" xmlns="http://www.w3.org/2000/svg">
								<path d="M9.85703 7.5L12.4987 10.1333V10C12.4987 9.33696 12.2353 8.70107 11.7665 8.23223C11.2976 7.76339 10.6617 7.5 9.9987 7.5H9.85703ZM6.2737 8.16667L7.56536 9.45833C7.5237 9.63333 7.4987 9.80833 7.4987 10C7.4987 10.663 7.76209 11.2989 8.23093 11.7678C8.69977 12.2366 9.33566 12.5 9.9987 12.5C10.182 12.5 10.3654 12.475 10.5404 12.4333L11.832 13.725C11.2737 14 10.657 14.1667 9.9987 14.1667C8.89363 14.1667 7.83382 13.7277 7.05242 12.9463C6.27102 12.1649 5.83203 11.1051 5.83203 10C5.83203 9.34167 5.9987 8.725 6.2737 8.16667ZM1.66536 3.55833L3.56536 5.45833L3.94036 5.83333C2.56536 6.91667 1.48203 8.33333 0.832031 10C2.2737 13.6583 5.83203 16.25 9.9987 16.25C11.2904 16.25 12.5237 16 13.6487 15.55L14.007 15.9L16.4404 18.3333L17.4987 17.275L2.7237 2.5M9.9987 5.83333C11.1038 5.83333 12.1636 6.27232 12.945 7.05372C13.7264 7.83512 14.1654 8.89493 14.1654 10C14.1654 10.5333 14.057 11.05 13.8654 11.5167L16.307 13.9583C17.557 12.9167 18.557 11.55 19.1654 10C17.7237 6.34167 14.1654 3.75 9.9987 3.75C8.83203 3.75 7.71536 3.95833 6.66536 4.33333L8.4737 6.125C8.9487 5.94167 9.45703 5.83333 9.9987 5.83333Z" fill="#9397AD"/>
</svg>