<svg width="124" height="80" viewBox="0 0 124 80" fill="none" xmlns="http://www.w3.org/2000/svg">
                        <g filter="url(#filter0_d_297_58)">
                        <path d="M67.7703 44.7836C67.7703 42.2443 65.7117 40.1858 63.1724 40.1858H53.9767C51.4374 40.1858 49.3789 42.2443 49.3789 44.7836C49.3789 47.3229 51.4374 49.3815 53.9767 49.3815H63.1724C65.7117 49.3815 67.7703 47.3229 67.7703 44.7836Z" fill="url(#paint0_linear_297_58)"/>
                        <path fill-rule="evenodd" clip-rule="evenodd" d="M40.1722 40.1848C42.6111 40.1848 44.95 39.216 46.6746 37.4915C48.3991 35.7669 49.3679 33.428 49.3679 30.9891C49.3679 28.5503 48.3991 26.2113 46.6746 24.4868C44.95 22.7623 42.6111 21.7935 40.1722 21.7935C37.7334 21.7935 35.3944 22.7623 33.6699 24.4868C31.9454 26.2113 30.9766 28.5503 30.9766 30.9891C30.9766 33.428 31.9454 35.7669 33.6699 37.4915C35.3944 39.216 37.7334 40.1848 40.1722 40.1848ZM40.1722 33.2881C40.782 33.2881 41.3667 33.0459 41.7978 32.6147C42.229 32.1836 42.4712 31.5989 42.4712 30.9891C42.4712 30.3794 42.229 29.7947 41.7978 29.3636C41.3667 28.9324 40.782 28.6902 40.1722 28.6902C39.5625 28.6902 38.9778 28.9324 38.5467 29.3636C38.1155 29.7947 37.8733 30.3794 37.8733 30.9891C37.8733 31.5989 38.1155 32.1836 38.5467 32.6147C38.9778 33.0459 39.5625 33.2881 40.1722 33.2881ZM86.1507 30.9891C86.1507 33.428 85.1818 35.7669 83.4573 37.4915C81.7328 39.216 79.3938 40.1848 76.955 40.1848C74.5161 40.1848 72.1772 39.216 70.4526 37.4915C68.7281 35.7669 67.7593 33.428 67.7593 30.9891C67.7593 28.5503 68.7281 26.2113 70.4526 24.4868C72.1772 22.7623 74.5161 21.7935 76.955 21.7935C79.3938 21.7935 81.7328 22.7623 83.4573 24.4868C85.1818 26.2113 86.1507 28.5503 86.1507 30.9891ZM79.2539 30.9891C79.2539 31.5989 79.0117 32.1836 78.5806 32.6147C78.1494 33.0459 77.5647 33.2881 76.955 33.2881C76.3453 33.2881 75.7605 33.0459 75.3294 32.6147C74.8983 32.1836 74.6561 31.5989 74.6561 30.9891C74.6561 30.3794 74.8983 29.7947 75.3294 29.3636C75.7605 28.9324 76.3453 28.6902 76.955 28.6902C77.5647 28.6902 78.1494 28.9324 78.5806 29.3636C79.0117 29.7947 79.2539 30.3794 79.2539 30.9891Z" fill="url(#paint1_linear_297_58)"/>
                        <path fill-rule="evenodd" clip-rule="evenodd" d="M12.2696 45.5669C14.1188 47.3335 16.0077 49.129 17.4584 51.2352C19.6099 54.359 22.3911 57.0177 25.6385 59.0316C30.0059 61.7401 35.0429 63.1748 40.1818 63.1741H76.9646C87.0093 63.1741 95.8009 57.8074 100.626 49.7835C101.738 47.9357 103.175 46.2904 104.594 44.6671C105.318 43.839 105.943 42.9241 106.453 41.9405C107.471 39.9775 108.002 37.7983 108 35.587C108 32.1135 106.714 28.9367 104.593 26.5122C103.174 24.8895 101.738 23.2431 100.629 21.3945C98.4713 17.7985 95.5139 14.7286 91.9697 12.4331C87.5005 9.5385 82.2893 7.99889 76.9646 8H40.1818C35.0437 8.00015 30.0076 9.43527 25.6412 12.1437C22.3946 14.1575 19.6141 16.8157 17.463 19.9389C16.0123 22.0451 14.1237 23.8407 12.2731 25.6059C11.4049 26.4341 10.6443 27.3758 10.0142 28.4101C8.69684 30.5722 8 33.0552 8 35.587C8 38.1189 8.69684 40.6018 10.0142 42.764C10.644 43.7977 11.403 44.739 12.2696 45.5669ZM40.1818 17.1957H76.9646C82.8699 17.1957 88.1218 19.9754 91.4894 24.3C92.011 24.9698 92.4068 25.7281 92.6852 26.53C93.6706 29.3686 94.2065 32.4143 94.2065 35.587C94.2065 38.7633 93.6693 41.8124 92.6818 44.6538C92.4054 45.4492 92.0135 46.2017 91.4973 46.867C89.9122 48.9103 87.9105 50.5999 85.6198 51.8204C82.9558 53.2398 79.9831 53.981 76.9646 53.9784H40.1818C35.3042 53.9784 30.6262 52.0408 27.1772 48.5917C23.7281 45.1427 21.7905 40.4647 21.7905 35.587C21.7905 30.7094 23.7281 26.0314 27.1772 22.5824C30.6262 19.1333 35.3042 17.1957 40.1818 17.1957Z" fill="url(#paint2_linear_297_58)"/>
                        </g>
                        <defs>
                        <filter id="filter0_d_297_58" x="0" y="0" width="124" height="79.1741" filterUnits="userSpaceOnUse" color-interpolation-filters="sRGB">
                        <feFlood flood-opacity="0" result="BackgroundImageFix"/>
                        <feColorMatrix in="SourceAlpha" type="matrix" values="0 0 0 0 0 0 0 0 0 0 0 0 0 0 0 0 0 0 127 0" result="hardAlpha"/>
                        <feMorphology radius="2" operator="dilate" in="SourceAlpha" result="effect1_dropShadow_297_58"/>
                        <feOffset dx="4" dy="4"/>
                        <feGaussianBlur stdDeviation="5"/>
                        <feComposite in2="hardAlpha" operator="out"/>
                        <feColorMatrix type="matrix" values="0 0 0 0 0.0901961 0 0 0 0 0.603922 0 0 0 0 0.988235 0 0 0 0.25 0"/>
                        <feBlend mode="normal" in2="BackgroundImageFix" result="effect1_dropShadow_297_58"/>
                        <feBlend mode="normal" in="SourceGraphic" in2="effect1_dropShadow_297_58" result="shape"/>
                        </filter>
                        <linearGradient id="paint0_linear_297_58" x1="49.3789" y1="44.8357" x2="67.7567" y2="44.8357" gradientUnits="userSpaceOnUse">
                        <stop stop-color="#815BD8"/>
                        <stop offset="1" stop-color="#4FA7BA"/>
                        </linearGradient>
                        <linearGradient id="paint1_linear_297_58" x1="30.9766" y1="31.0933" x2="86.1101" y2="31.0933" gradientUnits="userSpaceOnUse">
                        <stop stop-color="#815BD8"/>
                        <stop offset="1" stop-color="#4FA7BA"/>
                        </linearGradient>
                        <linearGradient id="paint2_linear_297_58" x1="8" y1="35.8996" x2="107.926" y2="35.8996" gradientUnits="userSpaceOnUse">
                        <stop stop-color="#815BD8"/>
                        <stop offset="1" stop-color="#4FA7BA"/>
                        </linearGradient>
                        </defs>
                    </svg>