<svg width="13" height="13" viewBox="0 0 13 13" fill="none" xmlns="http://www.w3.org/2000/svg">
                        <path d="M11.6783 12.1511H1.625C3.01167 12.1511 2.665 9.186 2.665 9.186C2.665 8.45823 3.28588 4.24414 4.05167 4.24414H11.3317C11.3317 4.24414 12.7183 4.24414 12.7183 5.56197V11.1627C12.7183 11.1627 12.7183 12.1511 11.6783 12.1511Z" fill="#99AAB5"/>
                        <path d="M10.6344 11.1629C10.6344 12.1512 11.6744 12.1512 11.6744 12.1512H1.27437C1.27437 12.1512 0.234375 12.1512 0.234375 10.8334V1.6086C0.234375 0.88083 0.855255 0.290771 1.62104 0.290771H9.24771C10.0135 0.290771 10.6344 0.88083 10.6344 1.6086V11.1629Z" fill="#CCD6DD"/>
                        <path d="M9.59734 6.87983C9.59734 7.06202 9.44238 7.20929 9.25068 7.20929H6.47734C6.28598 7.20929 6.13068 7.06202 6.13068 6.87983C6.13068 6.69764 6.28598 6.55037 6.47734 6.55037H9.25068C9.44238 6.55037 9.59734 6.69764 9.59734 6.87983ZM9.59734 5.562C9.59734 5.74419 9.44238 5.89146 9.25068 5.89146H6.47734C6.28598 5.89146 6.13068 5.74419 6.13068 5.562C6.13068 5.37981 6.28598 5.23254 6.47734 5.23254H9.25068C9.44238 5.23254 9.59734 5.37981 9.59734 5.562ZM9.59734 4.24417C9.59734 4.42636 9.44238 4.57363 9.25068 4.57363H6.47734C6.28598 4.57363 6.13068 4.42636 6.13068 4.24417C6.13068 4.06198 6.28598 3.91471 6.47734 3.91471H9.25068C9.44238 3.91471 9.59734 4.06198 9.59734 4.24417ZM9.59734 8.19766C9.59734 8.37985 9.44238 8.52711 9.25068 8.52711H1.62401C1.43265 8.52711 1.27734 8.37985 1.27734 8.19766C1.27734 8.01547 1.43265 7.8682 1.62401 7.8682H9.25068C9.44238 7.8682 9.59734 8.01547 9.59734 8.19766ZM9.59734 9.51549C9.59734 9.69768 9.44238 9.84494 9.25068 9.84494H1.62401C1.43265 9.84494 1.27734 9.69768 1.27734 9.51549C1.27734 9.3333 1.43265 9.18603 1.62401 9.18603H9.25068C9.44238 9.18603 9.59734 9.3333 9.59734 9.51549ZM9.59734 10.8333C9.59734 11.0155 9.44238 11.1628 9.25068 11.1628H1.62401C1.43265 11.1628 1.27734 11.0155 1.27734 10.8333C1.27734 10.6511 1.43265 10.5039 1.62401 10.5039H9.25068C9.44238 10.5039 9.59734 10.6511 9.59734 10.8333ZM8.90401 3.2558C8.90401 3.2558 9.59734 3.2558 9.59734 2.59688V1.93797C9.59734 1.93797 9.59734 1.27905 8.90401 1.27905H1.97068C1.97068 1.27905 1.27734 1.27905 1.27734 1.93797V2.59688C1.27734 2.59688 1.27734 3.2558 1.97068 3.2558H8.90401Z" fill="#99AAB5"/>
                        <path d="M4.74401 7.20912C4.74401 7.20912 5.43734 7.20912 5.43734 6.55021V4.57347C5.43734 4.57347 5.43734 3.91455 4.74401 3.91455H1.97068C1.97068 3.91455 1.27734 3.91455 1.27734 4.57347V6.55021C1.27734 6.55021 1.27734 7.20912 1.97068 7.20912H4.74401Z" fill="#55ACEE"/>
</svg>