<svg width="13" height="13" viewBox="0 0 13 13" fill="none" xmlns="http://www.w3.org/2000/svg">
                        <path d="M11.2424 0.732666H1.69883C1.09062 0.732666 0.597656 1.20115 0.597656 1.77918V10.8489C0.597656 11.427 1.09062 11.8955 1.69883 11.8955H11.2424C11.8506 11.8955 12.3435 11.427 12.3435 10.8489V1.77918C12.3435 1.20115 11.8506 0.732666 11.2424 0.732666Z" fill="#CCD6DD"/>
                        <path d="M11.2461 0.383789H1.70261C0.891777 0.383789 0.234375 1.00856 0.234375 1.77914V10.8489C0.234375 11.6195 0.891777 12.2443 1.70261 12.2443H11.2461C12.057 12.2443 12.7144 11.6195 12.7144 10.8489V1.77914C12.7144 1.00856 12.057 0.383789 11.2461 0.383789ZM11.2461 1.08146C11.651 1.08146 11.9803 1.39437 11.9803 1.77914V3.17449H9.7779V1.08146H11.2461ZM9.7779 6.66286H11.9803V8.75588H9.7779V6.66286ZM9.7779 5.96518V3.87216H11.9803V5.96518H9.7779ZM9.04379 1.08146V3.17449H6.84143V1.08146H9.04379ZM6.84143 3.87216H9.04379V5.96518H6.84143V3.87216ZM6.84143 6.66286H9.04379V8.75588H6.84143V6.66286ZM6.10732 1.08146V3.17449H3.90496V1.08146H6.10732ZM3.90496 3.87216H6.10732V5.96518H3.90496V3.87216ZM3.90496 6.66286H6.10732V8.75588H3.90496V6.66286ZM0.968493 1.77914C0.968493 1.39437 1.29774 1.08146 1.70261 1.08146H3.17085V3.17449H0.968493V1.77914ZM0.968493 3.87216H3.17085V5.96518H0.968493V3.87216ZM0.968493 6.66286H3.17085V8.75588H0.968493V6.66286ZM1.70261 11.5466C1.29774 11.5466 0.968493 11.2337 0.968493 10.8489V9.45356H3.17085V11.5466H1.70261ZM3.90496 11.5466V9.45356H6.10732V11.5466H3.90496ZM6.84143 11.5466V9.45356H9.04379V11.5466H6.84143ZM11.2461 11.5466H9.7779V9.45356H11.9803V10.8489C11.9803 11.2337 11.651 11.5466 11.2461 11.5466Z" fill="#E1E8ED"/>
                        <path d="M1.7022 11.5463C1.58474 11.5463 1.46545 11.5198 1.35496 11.463C0.997813 11.2805 0.864571 10.8574 1.05654 10.518L3.62595 5.98307C3.73571 5.78877 3.93612 5.65551 4.16553 5.62342C4.39531 5.59133 4.62729 5.66458 4.79137 5.82051L7.02162 7.94005L10.596 1.45516C10.784 1.114 11.2277 0.981792 11.5867 1.16109C11.9461 1.3397 12.0845 1.76144 11.8965 2.10296L7.85888 9.42854C7.7506 9.62528 7.55018 9.76098 7.3193 9.79482C7.08916 9.82656 6.8546 9.7554 6.68943 9.59842L4.45037 7.47086L2.34932 11.1793C2.21682 11.4134 1.96355 11.5463 1.7022 11.5463Z" fill="#DD2E44"/>
</svg>